<?xml version="1.0" encoding="UTF-8"?><svg xmlns="http://www.w3.org/2000/svg" xmlns:xlink="http://www.w3.org/1999/xlink" version="1.1" id="Layer_1" x="0px" y="0px" viewBox="0 0 24 24" xml:space="preserve"><path id="base_color_5_" fill="#F47920" d="M19.556 14.815a10.22 10.22 0 0 1-3.21-.511c-.511-.175-1.256.131-1.427.3-.463.46-1.776 1.772-1.776 1.772a13.413 13.413 0 0 1-5.51-5.527S8.897 9.575 9.35 9.133c.286-.28.523-.946.358-1.474a10.235 10.235 0 0 1-.514-3.215C9.194 3.648 8.546 3 7.75 3H4.444C3.648 3 3 3.648 3 4.444 3 13.574 10.427 21 19.556 21c.796 0 1.444-.648 1.444-1.444v-3.297c0-.796-.648-1.444-1.444-1.444zM18.172 7.95L21 5.12 18.879 3 16.05 5.828l-1.768-1.767-.707 6.364 6.364-.707-1.767-1.768z"/><g id="light_foil_6_" fill="#FFF"><path opacity="0.1" d="M19.556 14.815a10.22 10.22 0 0 1-3.21-.511c-.511-.175-1.256.131-1.427.3l-3.976 3.953A16.431 16.431 0 0 0 19.556 21c.796 0 1.444-.648 1.444-1.444v-3.297c0-.796-.648-1.444-1.444-1.444z"/><path opacity="0.1" d="M5.436 13.045s3.462-3.47 3.914-3.912c.286-.28.523-.946.358-1.474a10.235 10.235 0 0 1-.514-3.215C9.194 3.648 8.546 3 7.75 3H4.444C3.648 3 3 3.648 3 4.444c0 3.152.901 6.09 2.436 8.601z"/><path opacity="0.3" d="M13.575 10.425l6.364-.707-1.767-1.768L21 5.12 18.879 3 16.05 5.828l-1.768-1.767z"/></g><metadata><rdf:RDF xmlns:rdf="http://www.w3.org/1999/02/22-rdf-syntax-ns#" xmlns:rdfs="http://www.w3.org/2000/01/rdf-schema#" xmlns:dc="http://purl.org/dc/elements/1.1/"><rdf:Description about="https://iconscout.com/legal#licenses" dc:title="call,phone,telephone,incomming" dc:description="call,phone,telephone,incomming" dc:publisher="Iconscout" dc:date="2017-10-20" dc:format="image/svg+xml" dc:language="en"><dc:creator><rdf:Bag><rdf:li>Those Icons</rdf:li></rdf:Bag></dc:creator></rdf:Description></rdf:RDF></metadata></svg>