<svg data-v-423bf9ae="" xmlns="http://www.w3.org/2000/svg" viewBox="0 0 627 90" class="iconLeft"><!----><defs data-v-423bf9ae=""><linearGradient data-v-423bf9ae="" gradientTransform="rotate(25)" id="9235fc0f-9f43-48fe-ba72-b822806ef78b" x1="0%" y1="0%" x2="100%" y2="0%"><stop data-v-423bf9ae="" offset="0%" style="stop-color: rgb(135, 84, 78); stop-opacity: 1;"></stop><stop data-v-423bf9ae="" offset="100%" style="stop-color: rgb(135, 84, 78); stop-opacity: 1;"></stop></linearGradient></defs><!----><g data-v-423bf9ae="" id="b64ceda8-f2c3-40d1-ab7b-7ffe7fc8eb2e" fill="#ffffff" transform="matrix(6.12870278179688,0,0,6.12870278179688,125.66585487897183,-3.079674690633013)"><path d="M2.17 12.63L0.07 5.78L1.85 5.78L3.01 10.06L4.30 5.78L5.73 5.78L7.01 10.04L8.19 5.78L9.97 5.78L7.85 12.61L6.36 12.61L5.01 8.13L3.67 12.63L2.17 12.63ZM11.03 12.61L11.03 2.95L12.72 2.95L12.72 6.57L12.72 6.57Q13.11 6.09 13.63 5.86L13.63 5.86L13.63 5.86Q14.16 5.63 14.70 5.63L14.70 5.63L14.70 5.63Q15.55 5.63 16.12 6.04L16.12 6.04L16.12 6.04Q16.69 6.44 16.95 7.09L16.95 7.09L16.95 7.09Q17.22 7.75 17.22 8.50L17.22 8.50L17.22 12.61L15.52 12.61L15.52 8.72L15.52 8.72Q15.52 7.99 15.26 7.57L15.26 7.57L15.26 7.57Q14.99 7.14 14.29 7.14L14.29 7.14L14.29 7.14Q13.52 7.14 13.12 7.70L13.12 7.70L13.12 7.70Q12.72 8.25 12.72 9.15L12.72 9.15L12.72 12.61L11.03 12.61ZM21.86 12.74L21.86 12.74Q20.84 12.74 20.04 12.26L20.04 12.26L20.04 12.26Q19.24 11.78 18.80 10.96L18.80 10.96L18.80 10.96Q18.36 10.14 18.36 9.17L18.36 9.17L18.36 9.17Q18.36 8.21 18.80 7.40L18.80 7.40L18.80 7.40Q19.24 6.59 20.04 6.11L20.04 6.11L20.04 6.11Q20.84 5.63 21.86 5.63L21.86 5.63L21.86 5.63Q22.89 5.63 23.69 6.11L23.69 6.11L23.69 6.11Q24.49 6.59 24.92 7.40L24.92 7.40L24.92 7.40Q25.36 8.21 25.36 9.17L25.36 9.17L25.36 9.17Q25.36 10.14 24.92 10.96L24.92 10.96L24.92 10.96Q24.49 11.78 23.69 12.26L23.69 12.26L23.69 12.26Q22.89 12.74 21.86 12.74L21.86 12.74ZM21.86 11.31L21.86 11.31Q22.46 11.31 22.86 11.02L22.86 11.02L22.86 11.02Q23.26 10.73 23.44 10.24L23.44 10.24L23.44 10.24Q23.63 9.76 23.63 9.17L23.63 9.17L23.63 9.17Q23.63 8.26 23.19 7.67L23.19 7.67L23.19 7.67Q22.76 7.08 21.86 7.08L21.86 7.08L21.86 7.08Q21.26 7.08 20.86 7.36L20.86 7.36L20.86 7.36Q20.47 7.64 20.28 8.11L20.28 8.11L20.28 8.11Q20.10 8.59 20.10 9.17L20.10 9.17L20.10 9.17Q20.10 9.76 20.28 10.24L20.28 10.24L20.28 10.24Q20.47 10.73 20.86 11.02L20.86 11.02L20.86 11.02Q21.26 11.31 21.86 11.31L21.86 11.31ZM29.42 12.74L29.42 12.74Q28.36 12.74 27.61 12.25L27.61 12.25L27.61 12.25Q26.86 11.76 26.49 10.95L26.49 10.95L26.49 10.95Q26.11 10.14 26.11 9.20L26.11 9.20L26.11 9.20Q26.11 8.27 26.49 7.45L26.49 7.45L26.49 7.45Q26.86 6.64 27.60 6.14L27.60 6.14L27.60 6.14Q28.34 5.63 29.41 5.63L29.41 5.63L29.41 5.63Q30.45 5.63 31.21 6.14L31.21 6.14L31.21 6.14Q31.98 6.65 32.36 7.65L32.36 7.65L30.78 8.26L30.78 8.26Q30.64 7.76 30.27 7.45L30.27 7.45L30.27 7.45Q29.91 7.14 29.41 7.14L29.41 7.14L29.41 7.14Q28.86 7.14 28.50 7.43L28.50 7.43L28.50 7.43Q28.14 7.72 27.98 8.19L27.98 8.19L27.98 8.19Q27.81 8.66 27.81 9.20L27.81 9.20L27.81 9.20Q27.81 9.75 27.97 10.21L27.97 10.21L27.97 10.21Q28.14 10.67 28.50 10.95L28.50 10.95L28.50 10.95Q28.85 11.23 29.41 11.23L29.41 11.23L29.41 11.23Q29.90 11.23 30.27 10.93L30.27 10.93L30.27 10.93Q30.64 10.64 30.78 10.14L30.78 10.14L32.29 10.72L32.29 10.72Q31.95 11.68 31.19 12.21L31.19 12.21L31.19 12.21Q30.43 12.74 29.42 12.74L29.42 12.74ZM35.44 12.74L35.44 12.74Q34.74 12.74 34.18 12.48L34.18 12.48L34.18 12.48Q33.61 12.22 33.29 11.71L33.29 11.71L33.29 11.71Q32.96 11.20 32.96 10.51L32.96 10.51L32.96 10.51Q32.96 9.46 33.70 9.00L33.70 9.00L33.70 9.00Q34.43 8.53 35.68 8.53L35.68 8.53L37.46 8.53L37.46 8.53Q37.46 7.87 37.11 7.48L37.11 7.48L37.11 7.48Q36.76 7.09 36.11 7.09L36.11 7.09L36.11 7.09Q35.57 7.09 35.16 7.36L35.16 7.36L35.16 7.36Q34.75 7.63 34.51 8.05L34.51 8.05L33.23 7.13L33.23 7.13Q33.76 6.41 34.45 6.02L34.45 6.02L34.45 6.02Q35.14 5.63 36.10 5.63L36.10 5.63L36.10 5.63Q37.02 5.63 37.68 5.99L37.68 5.99L37.68 5.99Q38.35 6.34 38.70 6.99L38.70 6.99L38.70 6.99Q39.05 7.63 39.05 8.46L39.05 8.46L39.05 12.61L37.68 12.61L37.57 11.63L37.57 11.63Q37.15 12.24 36.63 12.49L36.63 12.49L36.63 12.49Q36.10 12.74 35.44 12.74L35.44 12.74ZM35.68 11.33L35.68 11.33Q36.15 11.33 36.55 11.11L36.55 11.11L36.55 11.11Q36.96 10.89 37.20 10.52L37.20 10.52L37.20 10.52Q37.45 10.16 37.46 9.73L37.46 9.73L35.78 9.73L35.78 9.73Q35.24 9.73 34.96 9.97L34.96 9.97L34.96 9.97Q34.67 10.21 34.67 10.56L34.67 10.56L34.67 10.56Q34.67 10.91 34.94 11.12L34.94 11.12L34.94 11.12Q35.21 11.33 35.68 11.33L35.68 11.33ZM42.22 12.74L42.22 12.74Q41.56 12.74 41.17 12.41L41.17 12.41L41.17 12.41Q40.79 12.08 40.79 11.25L40.79 11.25L40.79 2.95L42.46 2.95L42.46 10.79L42.46 10.79Q42.46 11.25 43.00 11.25L43.00 11.25L43.00 11.25Q43.20 11.25 43.46 11.20L43.46 11.20L43.46 12.61L43.46 12.61Q42.77 12.74 42.22 12.74L42.22 12.74ZM46.14 12.74L46.14 12.74Q45.47 12.74 45.09 12.41L45.09 12.41L45.09 12.41Q44.71 12.08 44.71 11.25L44.71 11.25L44.71 2.95L46.38 2.95L46.38 10.79L46.38 10.79Q46.38 11.25 46.92 11.25L46.92 11.25L46.92 11.25Q47.11 11.25 47.38 11.20L47.38 11.20L47.38 12.61L47.38 12.61Q46.68 12.74 46.14 12.74L46.14 12.74ZM51.51 12.74L51.51 12.74Q50.38 12.74 49.60 12.26L49.60 12.26L49.60 12.26Q48.82 11.77 48.44 10.97L48.44 10.97L48.44 10.97Q48.05 10.17 48.05 9.21L48.05 9.21L48.05 9.21Q48.05 8.29 48.42 7.46L48.42 7.46L48.42 7.46Q48.79 6.64 49.54 6.14L49.54 6.14L49.54 6.14Q50.30 5.63 51.40 5.63L51.40 5.63L51.40 5.63Q52.52 5.63 53.23 6.15L53.23 6.15L53.23 6.15Q53.94 6.67 54.25 7.45L54.25 7.45L54.25 7.45Q54.56 8.23 54.56 9.08L54.56 9.08L54.56 9.08Q54.56 9.28 54.55 9.47L54.55 9.47L54.55 9.47Q54.53 9.66 54.50 9.73L54.50 9.73L49.81 9.73L49.81 9.73Q50.05 11.23 51.52 11.23L51.52 11.23L51.52 11.23Q52.01 11.23 52.41 11.06L52.41 11.06L52.41 11.06Q52.81 10.89 53.16 10.51L53.16 10.51L54.31 11.51L54.31 11.51Q53.75 12.13 53.06 12.44L53.06 12.44L53.06 12.44Q52.37 12.74 51.51 12.74L51.51 12.74ZM49.81 8.53L52.92 8.53L52.92 8.53Q52.84 7.81 52.44 7.42L52.44 7.42L52.44 7.42Q52.04 7.03 51.39 7.03L51.39 7.03L51.39 7.03Q50.09 7.03 49.81 8.53L49.81 8.53ZM60.27 2.95L61.97 2.95L61.97 12.61L60.42 12.61L60.34 11.84L60.34 11.84Q60.01 12.30 59.48 12.52L59.48 12.52L59.48 12.52Q58.96 12.74 58.36 12.74L58.36 12.74L58.36 12.74Q57.43 12.74 56.76 12.26L56.76 12.26L56.76 12.26Q56.09 11.78 55.74 10.97L55.74 10.97L55.74 10.97Q55.40 10.16 55.40 9.19L55.40 9.19L55.40 9.19Q55.40 8.22 55.74 7.41L55.74 7.41L55.74 7.41Q56.09 6.60 56.75 6.12L56.75 6.12L56.75 6.12Q57.42 5.63 58.33 5.63L58.33 5.63L58.33 5.63Q58.91 5.63 59.42 5.84L59.42 5.84L59.42 5.84Q59.94 6.04 60.27 6.46L60.27 6.46L60.27 2.95ZM58.76 11.23L58.76 11.23Q59.59 11.23 60.00 10.67L60.00 10.67L60.00 10.67Q60.42 10.11 60.42 9.19L60.42 9.19L60.42 9.19Q60.42 8.27 60.00 7.71L60.00 7.71L60.00 7.71Q59.58 7.14 58.76 7.14L58.76 7.14L58.76 7.14Q57.94 7.14 57.52 7.71L57.52 7.71L57.52 7.71Q57.09 8.29 57.09 9.19L57.09 9.19L57.09 9.19Q57.09 10.10 57.51 10.66L57.51 10.66L57.51 10.66Q57.93 11.23 58.76 11.23L58.76 11.23ZM63.96 12.61L63.96 5.78L65.65 5.78L65.65 6.49L65.65 6.49Q65.97 6.05 66.42 5.84L66.42 5.84L66.42 5.84Q66.87 5.63 67.38 5.63L67.38 5.63L67.38 5.63Q68.63 5.63 69.30 6.84L69.30 6.84L69.30 6.84Q69.69 6.23 70.28 5.93L70.28 5.93L70.28 5.93Q70.88 5.63 71.57 5.63L71.57 5.63L71.57 5.63Q72.40 5.63 72.97 6.04L72.97 6.04L72.97 6.04Q73.53 6.44 73.81 7.09L73.81 7.09L73.81 7.09Q74.09 7.75 74.09 8.50L74.09 8.50L74.09 12.61L72.39 12.61L72.39 8.72L72.39 8.72Q72.39 8.01 72.14 7.60L72.14 7.60L72.14 7.60Q71.89 7.18 71.29 7.18L71.29 7.18L71.29 7.18Q70.85 7.18 70.53 7.41L70.53 7.41L70.53 7.41Q70.21 7.63 70.03 8.01L70.03 8.01L70.03 8.01Q69.86 8.39 69.86 8.85L69.86 8.85L69.86 12.61L68.17 12.61L68.17 8.69L68.17 8.69Q68.17 7.99 67.93 7.59L67.93 7.59L67.93 7.59Q67.68 7.18 67.09 7.18L67.09 7.18L67.09 7.18Q66.64 7.18 66.32 7.41L66.32 7.41L66.32 7.41Q65.99 7.63 65.82 8.01L65.82 8.01L65.82 8.01Q65.65 8.39 65.65 8.85L65.65 8.85L65.65 12.61L63.96 12.61ZM78.72 12.74L78.72 12.74Q77.59 12.74 76.82 12.26L76.82 12.26L76.82 12.26Q76.04 11.77 75.65 10.97L75.65 10.97L75.65 10.97Q75.26 10.17 75.26 9.21L75.26 9.21L75.26 9.21Q75.26 8.29 75.63 7.46L75.63 7.46L75.63 7.46Q76.00 6.64 76.76 6.14L76.76 6.14L76.76 6.14Q77.51 5.63 78.61 5.63L78.61 5.63L78.61 5.63Q79.73 5.63 80.45 6.15L80.45 6.15L80.45 6.15Q81.16 6.67 81.47 7.45L81.47 7.45L81.47 7.45Q81.78 8.23 81.78 9.08L81.78 9.08L81.78 9.08Q81.78 9.28 81.76 9.47L81.76 9.47L81.76 9.47Q81.74 9.66 81.72 9.73L81.72 9.73L77.03 9.73L77.03 9.73Q77.27 11.23 78.74 11.23L78.74 11.23L78.74 11.23Q79.22 11.23 79.63 11.06L79.63 11.06L79.63 11.06Q80.03 10.89 80.38 10.51L80.38 10.51L81.53 11.51L81.53 11.51Q80.96 12.13 80.27 12.44L80.27 12.44L80.27 12.44Q79.58 12.74 78.72 12.74L78.72 12.74ZM77.03 8.53L80.14 8.53L80.14 8.53Q80.06 7.81 79.66 7.42L79.66 7.42L79.66 7.42Q79.26 7.03 78.60 7.03L78.60 7.03L78.60 7.03Q77.30 7.03 77.03 8.53L77.03 8.53Z"></path></g><!----><g data-v-423bf9ae="" id="20b0e60f-2239-4044-9034-4b99c3fe6f48" transform="matrix(2.2499982833875403,0,0,2.2499982833875403,-59.075724126136265,-66.49991750725349)" stroke="none" fill="#ffffff"><path d="M73.464 63.949a4.996 4.996 0 0 1-.999 4.193A4.997 4.997 0 0 1 68.576 70H31.424a5.002 5.002 0 0 1-4.889-6.051C28.896 52.969 38.765 45 50 45a23.997 23.997 0 0 1 22.056 14.539c.61 1.416 1.084 2.9 1.408 4.41zM31.428 45.536c.939 0 1.889-.264 2.734-.817C38.876 41.632 44.353 40 50 40s11.124 1.631 15.837 4.718a5 5 0 0 0 5.478-8.366A38.803 38.803 0 0 0 50 30a38.81 38.81 0 0 0-21.316 6.352 4.999 4.999 0 0 0-1.444 6.922 4.994 4.994 0 0 0 4.188 2.262z"></path></g><!----></svg>