<svg xmlns="http://www.w3.org/2000/svg" data-name="Layer 1" viewBox="0 0 32 32"><path fill="#58565d" d="M26.5,2.06V29.94a2,2,0,0,1-2,2.06h-14a2,2,0,0,1-2-2.06V2.06A2,2,0,0,1,10.5,0h14A2,2,0,0,1,26.5,2.06Z"/><path fill="#4eb9e9" d="M21.37,1.3l-.56.51a1.17,1.17,0,0,1-.78.3H14.84a1.21,1.21,0,0,1-.79-.3L13.5,1.3a1.21,1.21,0,0,0-.79-.3H10.64A1.13,1.13,0,0,0,9.5,2.11V29.89A1.13,1.13,0,0,0,10.64,31H24.36a1.13,1.13,0,0,0,1.14-1.11V2.11A1.13,1.13,0,0,0,24.36,1H22.15A1.17,1.17,0,0,0,21.37,1.3Z"/><path fill="#fff" d="M20.5,30h-6a.5.5,0,0,1,0-1h6a.5.5,0,0,1,0,1Z"/></svg>